<svg xmlns="http://www.w3.org/2000/svg" viewBox="5 0 110 50" width="110" height="250"><g transform="matrix(0 1 -1 0 250 -0)"><metadata>
Created by potrace 1.10, written by Peter Selinger 2001-2011
</metadata><g transform="translate(0.000000,250.000000) scale(0.100000,-0.100000)" fill="#761f02" stroke="none">
<path d="M966 2483 c24 -24 73 -134 67 -150 -10 -25 -20 -13 -49 55 -16 37 -30 60 -32 50 -2 -9 11 -44 28 -78 17 -34 29 -69 25 -78 -4 -12 -13 -2 -30 33 -13 28 -24 42 -24 32 -1 -10 8 -36 19 -58 15 -28 18 -44 11 -57 -9 -15 -11 -14 -19 8 -8 20 -10 13 -9 -37 l0 -63 46 98 c26 53 60 127 76 164 17 37 33 68 36 68 25 1 7 -52 -71 -215 -50 -102 -90 -193 -90 -203 1 -9 32 48 70 128 125 260 117 247 125 228 5 -11 -26 -85 -89 -217 l-96 -199 96 -198 c56 -117 92 -204 89 -213 -4 -11 -23 19 -57 89 -64 135 -123 261 -131 280 -4 11 -6 9 -6 -6 -1 -12 39 -105 89 -208 79 -165 96 -216 71 -216 -4 0 -41 72 -81 160 -40 88 -74 160 -76 160 -1 0 -2 -24 -2 -52 0 -37 2 -47 8 -33 7 19 8 19 15 2 5 -11 1 -33 -9 -53 -9 -19 -16 -42 -15 -52 0 -9 9 3 20 28 15 33 22 41 29 30 5 -9 -2 -33 -21 -72 -16 -31 -29 -65 -29 -75 1 -10 16 11 35 47 47 92 58 56 11 -39 l-35 -71 35 -76 c47 -100 37 -137 -11 -44 -20 37 -34 56 -34 45 -1 -11 13 -44 29 -73 26 -47 31 -82 11 -82 -4 0 -13 17 -21 38 -9 24 -15 31 -18 20 -2 -9 4 -31 13 -48 9 -18 13 -39 10 -48 -6 -15 -8 -15 -15 3 -5 13 -7 3 -8 -32 l0 -51 52 106 c29 59 63 131 76 160 13 28 27 52 31 52 25 0 8 -51 -71 -213 -50 -100 -90 -191 -90 -202 0 -16 57 95 167 325 16 35 22 41 28 28 5 -12 -25 -83 -88 -213 l-96 -195 95 -195 c89 -186 104 -225 86 -225 -8 0 -38 61 -151 300 -22 47 -41 75 -41 64 0 -12 41 -105 90 -208 71 -144 89 -190 81 -204 -8 -14 -18 1 -57 83 -25 55 -61 131 -79 169 l-33 70 1 -52 c0 -30 4 -47 9 -40 6 10 10 10 17 -1 6 -10 3 -27 -10 -52 -10 -21 -19 -46 -19 -56 1 -10 10 1 22 25 34 71 42 33 8 -41 -16 -37 -30 -75 -29 -84 0 -10 14 12 31 50 29 64 48 84 48 52 0 -9 -16 -47 -36 -87 l-36 -71 37 -79 c19 -43 32 -84 28 -90 -4 -7 -20 16 -40 57 -20 42 -33 61 -33 48 0 -12 8 -37 18 -55 32 -59 40 -85 32 -98 -6 -9 -14 0 -29 31 -23 48 -23 18 0 -38 13 -32 5 -59 -10 -34 -5 8 -9 -7 -9 -40 l0 -52 33 69 c128 272 127 270 137 248 8 -16 -8 -55 -81 -204 -50 -101 -91 -193 -90 -204 0 -12 22 24 48 79 26 55 68 142 92 193 44 92 67 118 56 63 -8 -36 -175 -373 -190 -383 -7 -5 -3 -8 11 -8 12 0 22 4 22 9 0 5 39 90 86 188 69 144 87 175 95 160 8 -13 -8 -54 -70 -183 -45 -91 -81 -167 -81 -170 0 -12 18 -1 23 14 15 51 147 303 152 290 3 -8 -26 -79 -64 -158 -76 -153 -75 -150 -62 -150 4 0 37 61 72 135 35 74 67 135 71 135 19 0 4 -48 -48 -151 -30 -61 -53 -114 -50 -117 9 -8 10 -6 66 112 34 73 54 105 60 97 4 -8 -10 -50 -37 -108 -24 -52 -42 -98 -39 -101 7 -7 4 -12 51 85 22 47 43 79 48 74 7 -7 -20 -74 -61 -153 -2 -5 5 -8 15 -8 11 0 25 15 36 39 9 21 24 38 31 38 11 0 12 -5 5 -18 -12 -23 -11 -38 1 -19 9 13 11 13 19 1 5 -8 7 -20 4 -28 -4 -9 4 -13 24 -13 26 0 32 6 53 53 13 28 52 110 87 182 l63 129 0 132 0 132 -89 183 -90 183 90 183 89 184 0 128 0 129 -46 99 c-25 54 -66 138 -90 186 l-44 89 51 106 c127 264 129 268 129 338 0 57 -2 65 -17 62 -10 -2 -17 -11 -17 -21 1 -9 -3 -14 -8 -11 -5 3 -7 12 -4 19 7 20 -377 22 -396 2 -11 -12 -15 -12 -25 2 -12 15 -13 14 -7 -1 3 -9 -1 -27 -10 -40 -13 -18 -16 -19 -16 -5 0 20 -16 23 -23 5 -3 -7 -4 1 -3 18 3 28 0 30 -32 32 -33 3 -33 2 -16 -15z m303 -213 c93 -197 111 -250 84 -250 -5 0 -28 44 -53 98 -24 53 -74 159 -111 235 -61 126 -65 137 -45 137 18 -1 37 -35 125 -220z m36 24 c60 -124 90 -197 84 -205 -4 -7 -10 -11 -12 -9 -5 6 -111 225 -163 338 -28 59 -31 73 -18 70 11 -2 51 -73 109 -194z m-36 174 c5 -13 41 -90 80 -171 45 -96 68 -154 63 -163 -5 -9 -35 43 -92 162 -102 213 -95 194 -76 194 9 0 20 -10 25 -22z m56 -15 c10 -21 41 -86 70 -145 37 -77 49 -112 42 -123 -7 -13 -26 20 -83 139 -41 86 -74 158 -74 161 0 3 6 5 14 5 7 0 22 -17 31 -37z m80 -70 c64 -136 65 -138 56 -152 -5 -7 -31 37 -65 111 -73 154 -71 148 -55 148 8 0 37 -48 64 -107z m43 4 c27 -58 42 -101 36 -106 -5 -6 -30 35 -61 101 -39 82 -48 109 -36 106 10 -2 35 -43 61 -101z m32 41 c30 -62 38 -98 22 -98 -7 0 -82 142 -82 155 0 3 7 5 15 5 10 0 28 -26 45 -62z m-304 -88 c-27 -47 -158 -329 -158 -340 -1 -8 35 -91 80 -183 71 -147 87 -198 63 -197 -3 0 -45 83 -93 185 -71 149 -86 188 -79 207 5 13 46 99 91 193 58 120 84 165 90 155 5 -8 7 -17 6 -20z m24 -40 c0 -4 -32 -74 -71 -155 l-72 -147 72 -145 c69 -139 81 -173 62 -173 -8 0 -36 54 -123 237 l-39 82 77 160 c42 88 81 158 85 155 5 -3 9 -9 9 -14z m20 -49 c0 -11 -25 -72 -55 -137 l-56 -117 61 -124 c43 -91 58 -129 51 -141 -7 -12 -24 16 -75 122 -36 76 -66 141 -66 145 0 14 125 271 133 271 4 0 7 -9 7 -19z m-15 -150 c-25 -50 -45 -97 -45 -104 0 -8 20 -55 45 -106 27 -56 42 -98 37 -106 -5 -9 -25 25 -61 101 l-54 114 54 110 c37 76 55 106 61 96 5 -9 -8 -47 -37 -105z m65 48 c0 -6 -15 -43 -33 -82 l-34 -73 33 -64 c31 -61 43 -110 27 -110 -5 0 -27 40 -50 89 l-41 89 41 86 c35 74 57 99 57 65z m10 -80 c0 -5 5 -7 11 -3 8 4 9 -1 4 -16 -5 -15 -3 -20 3 -16 6 3 14 1 18 -5 4 -8 3 -9 -4 -5 -7 4 -12 1 -12 -8 0 -9 7 -16 15 -16 8 0 15 -3 15 -7 0 -13 -20 -39 -21 -28 0 6 -6 -2 -13 -18 l-12 -27 -28 41 c-25 39 -26 43 -10 58 15 15 15 14 5 -6 -8 -15 -8 -23 -1 -23 10 0 12 8 13 63 1 25 17 41 17 16z m85 -117 c3 -12 -33 -97 -101 -236 l-106 -217 26 -59 c15 -32 63 -134 107 -226 66 -137 79 -170 71 -188 -9 -19 -13 -15 -37 38 -14 33 -66 143 -116 246 l-89 187 110 227 c60 125 110 231 110 236 0 17 18 11 25 -8z m25 -60 c0 -10 -41 -101 -91 -202 -65 -134 -89 -192 -85 -210 2 -14 43 -105 90 -202 81 -165 97 -209 79 -208 -12 1 -198 399 -198 424 0 26 185 416 197 416 5 0 8 -8 8 -18z m-49 -217 c-45 -92 -81 -173 -81 -180 0 -6 36 -87 80 -179 62 -127 78 -171 71 -184 -8 -14 -28 21 -100 171 l-90 187 90 187 c63 131 93 183 101 175 7 -7 -14 -59 -71 -177z m99 117 c0 -10 -31 -81 -69 -159 l-69 -141 69 -142 c66 -136 79 -170 61 -170 -9 0 -155 298 -155 315 0 18 146 315 155 315 4 0 8 -8 8 -18z m26 -62 c-19 -33 -109 -227 -109 -235 0 -5 25 -63 56 -129 39 -81 54 -123 48 -134 -8 -14 -42 48 -122 224 l-19 41 66 133 c46 94 68 130 74 120 5 -8 7 -17 6 -20z m-20 -138 l-47 -97 46 -99 c26 -55 44 -105 40 -114 -4 -11 -25 24 -61 98 l-55 114 52 108 c36 73 56 105 63 98 7 -7 -5 -42 -38 -108z m64 53 c0 -9 -13 -42 -30 -75 -16 -33 -30 -64 -30 -70 0 -6 15 -44 34 -84 21 -46 31 -79 25 -87 -4 -7 -9 -11 -11 -9 -9 12 -78 167 -78 175 0 5 16 44 37 87 34 74 53 96 53 63z m-466 -70 c-4 -8 -1 -15 5 -15 6 0 11 -6 11 -14 0 -8 6 -17 13 -19 9 -4 8 -8 -3 -17 -12 -9 -11 -10 8 -5 21 6 21 5 11 -19 -7 -14 -16 -26 -20 -26 -4 0 -10 -12 -14 -27 l-7 -28 -13 25 c-19 33 -18 50 0 26 15 -19 15 -19 15 3 0 14 -4 20 -12 15 -8 -5 -9 -1 -5 12 7 18 6 18 -8 -1 -14 -17 -17 -18 -25 -5 -5 8 -10 20 -10 25 0 6 4 4 9 -3 6 -10 11 -9 22 4 9 12 10 15 2 10 -7 -4 -13 -3 -13 1 0 5 6 15 13 22 10 11 9 12 -2 6 -9 -5 -7 1 4 19 19 29 27 34 19 11z m129 -220 c4 -8 -32 -92 -79 -186 l-85 -172 52 -106 c91 -186 119 -250 108 -256 -5 -4 -50 76 -100 179 l-90 185 88 185 c48 102 91 185 94 186 4 0 9 -7 12 -15z m27 -60 c0 -8 -31 -77 -70 -154 -38 -77 -70 -142 -70 -145 0 -2 32 -70 70 -150 47 -98 67 -152 62 -162 -6 -10 -31 33 -86 147 -65 132 -77 165 -69 182 116 253 163 335 163 282z m-32 -179 l-62 -125 53 -113 c29 -62 56 -123 58 -135 10 -43 -14 -23 -37 30 -12 28 -40 87 -61 130 -21 43 -39 83 -39 90 0 6 30 73 66 147 52 107 67 131 75 118 7 -13 -6 -48 -53 -142z m37 -15 c-25 -50 -45 -98 -45 -106 0 -8 20 -56 45 -106 34 -67 43 -94 36 -107 -7 -13 -20 6 -63 94 l-54 111 55 117 c40 86 57 113 63 102 6 -10 -6 -44 -37 -105z m65 47 c0 -7 -16 -44 -34 -83 -34 -70 -34 -70 -16 -105 43 -87 52 -111 45 -127 -5 -14 -18 4 -51 70 l-43 88 42 85 c38 78 57 102 57 72z m25 -78 c3 -5 2 -10 -4 -10 -6 0 -8 -7 -5 -15 4 -8 10 -12 15 -9 5 3 9 1 9 -5 0 -5 7 -17 16 -25 14 -14 14 -16 0 -16 -10 0 -13 -6 -10 -15 4 -8 1 -15 -5 -15 -6 0 -11 -8 -12 -17 -1 -12 -4 -10 -9 7 -8 24 -8 24 -9 3 -1 -13 -5 -23 -11 -23 -5 0 -7 7 -3 15 3 10 1 15 -7 13 -7 -2 -15 3 -18 11 -3 10 0 11 9 5 12 -6 12 -5 1 8 -12 15 -6 52 7 43 4 -2 7 6 6 18 -3 35 15 51 30 27z m-30 -348 c-103 -209 -114 -238 -96 -258 20 -22 202 -424 196 -433 -11 -19 -23 -12 -38 27 -8 20 -39 87 -67 147 -29 61 -72 152 -96 203 l-43 93 72 147 c40 81 92 190 116 242 40 86 45 92 53 70 8 -20 -8 -59 -97 -238z m125 174 c0 -8 -40 -98 -90 -201 -49 -103 -90 -192 -90 -199 0 -7 41 -99 90 -204 89 -191 97 -212 82 -212 -10 0 -202 394 -202 414 0 21 191 416 202 416 4 0 8 -6 8 -14z m-54 -234 l-85 -172 83 -173 c56 -116 81 -179 75 -188 -8 -13 -24 17 -149 288 l-38 81 80 164 c44 89 84 174 90 188 10 24 10 25 20 4 8 -17 -6 -53 -76 -192z m104 134 c0 -8 -32 -79 -71 -159 l-71 -145 72 -148 c39 -81 68 -154 65 -163 -8 -22 -15 -10 -93 155 l-72 152 78 161 c71 150 92 182 92 147z m-31 -178 c-33 -65 -59 -122 -59 -127 0 -6 25 -62 55 -126 53 -113 64 -145 47 -145 -7 0 -132 257 -132 271 0 4 30 69 66 145 52 109 68 135 74 119 5 -14 -9 -53 -51 -137z m36 -17 c-25 -51 -45 -98 -45 -105 0 -7 20 -57 45 -111 30 -64 42 -102 37 -112 -6 -10 -21 11 -54 80 -25 52 -49 104 -53 117 -9 29 94 259 107 237 5 -10 -8 -47 -37 -106z m65 46 c0 -7 -16 -43 -34 -81 l-35 -68 35 -76 c52 -113 32 -129 -21 -18 -39 80 -42 93 -31 115 7 15 25 54 41 88 26 55 45 73 45 40z m-426 -136 c11 -13 15 -21 9 -17 -7 4 -13 2 -13 -4 0 -6 -4 -8 -10 -5 -14 9 -13 -8 2 -23 8 -8 9 -12 1 -12 -6 0 -19 7 -27 16 -9 8 -16 12 -16 7 0 -5 5 -14 11 -20 12 -12 4 -33 -11 -33 -5 0 -6 7 -3 17 4 10 2 14 -5 9 -17 -10 -23 9 -12 38 6 16 6 27 0 31 -6 4 -10 11 -10 17 0 6 7 5 17 -3 12 -10 15 -11 9 -1 -4 7 -2 20 5 28 11 14 14 13 22 -3 5 -10 19 -29 31 -42z m422 6 c-1 -24 -6 -33 -18 -34 -10 -1 -18 1 -18 4 0 5 33 63 36 63 0 0 0 -15 0 -33z"/>
<path d="M1528 2275 c-3 -11 -34 -78 -68 -150 l-61 -130 70 -145 c38 -80 70 -137 71 -127 0 9 -22 61 -48 115 -84 168 -83 142 -13 288 34 71 60 137 59 148 -3 21 -3 21 -10 1z"/>
<path d="M1492 2088 l-43 -94 45 -95 c25 -51 45 -86 46 -76 0 10 -16 49 -35 87 -19 38 -35 74 -35 80 0 6 16 46 36 90 20 43 34 84 32 90 -2 7 -23 -30 -46 -82z"/>
<path d="M1516 2032 c-19 -43 -19 -43 2 -85 16 -32 21 -37 21 -20 1 12 -3 25 -9 28 -13 8 -13 58 1 72 6 6 9 19 7 29 -2 13 -9 5 -22 -24z"/>
<path d="M1467 1136 l-68 -141 68 -147 c37 -81 69 -141 71 -133 2 8 -24 72 -57 141 -34 69 -61 131 -61 136 0 6 27 67 60 136 34 69 59 131 58 137 -2 7 -34 -52 -71 -129z"/>
<path d="M1531 1184 c0 -7 -21 -54 -45 -105 l-43 -93 42 -85 c23 -47 45 -93 48 -101 3 -10 6 -7 6 8 1 12 -17 58 -39 101 l-39 79 40 83 c22 45 38 92 36 103 -2 12 -5 16 -6 10z"/>
<path d="M1515 1030 c-17 -39 -17 -41 3 -87 16 -35 21 -42 22 -25 0 13 -5 33 -11 44 -8 16 -8 31 1 59 18 53 7 59 -15 9z"/>
<path d="M1467 161 c-70 -153 -73 -161 -57 -161 6 0 10 5 10 10 0 6 27 68 60 137 34 70 60 135 58 143 -2 9 -33 -49 -71 -129z"/>
<path d="M1531 203 c0 -7 -21 -54 -46 -104 -25 -51 -43 -94 -40 -97 7 -8 8 -6 54 86 24 48 40 93 38 105 -2 12 -5 17 -6 10z"/>
<path d="M1513 56 c-26 -52 -27 -56 -15 -56 14 0 45 64 41 84 -3 13 -11 5 -26 -28z"/>
</g></g></svg>