<?xml version="1.0" standalone="no"?>
<!DOCTYPE svg PUBLIC "-//W3C//DTD SVG 20010904//EN"
 "http://www.w3.org/TR/2001/REC-SVG-20010904/DTD/svg10.dtd">
<svg version="1.0" xmlns="http://www.w3.org/2000/svg"
 width="300.000000pt" height="174.000000pt" viewBox="0 0 300.000000 174.000000"
 preserveAspectRatio="xMidYMid meet">
<metadata>
Created by potrace 1.10, written by Peter Selinger 2001-2011
</metadata>
<g transform="translate(0.000000,174.000000) scale(0.100000,-0.100000)"
fill="#000000" stroke="none">
<path d="M1671 1713 c-1 -19 -7 -23 -33 -24 -26 -1 -29 -2 -12 -7 17 -6 21
-14 19 -39 -3 -39 12 -44 21 -7 5 21 11 24 30 20 27 -7 33 8 8 18 -16 6 -16 8
0 24 22 26 20 39 -3 18 -18 -17 -19 -17 -24 1 -4 14 -5 14 -6 -4z"/>
<path d="M1215 1700 c-14 -16 -20 -17 -27 -8 -5 9 -8 5 -8 -11 0 -13 -8 -30
-17 -37 -10 -7 -13 -14 -6 -14 6 0 9 -9 6 -22 -4 -22 -4 -22 10 -5 15 18 16
18 20 -5 3 -15 5 -11 6 14 1 32 6 40 41 59 48 27 54 47 8 23 -31 -16 -32 -16
-19 0 20 24 7 30 -14 6z"/>
<path d="M1462 1686 c5 -25 3 -27 -18 -23 -14 2 -27 0 -30 -4 -3 -5 6 -9 20
-9 31 0 33 -11 6 -35 -11 -10 -20 -23 -20 -28 0 -6 12 0 27 14 19 18 25 19 20
7 -3 -10 -2 -20 3 -23 6 -4 10 4 10 17 1 22 1 22 15 4 11 -14 18 -17 26 -9 8
8 4 15 -12 26 -21 15 -21 17 -5 42 20 31 11 49 -10 21 -12 -17 -14 -17 -14 -4
0 9 -5 20 -11 24 -8 5 -10 -1 -7 -20z"/>
<path d="M2111 1691 c-8 -5 -20 -7 -26 -5 -7 3 -15 -2 -18 -10 -4 -9 -14 -12
-26 -9 -12 3 -21 1 -21 -6 0 -6 7 -11 15 -11 20 0 19 -10 -2 -26 -17 -13 -17
-13 0 -14 14 0 16 -5 11 -26 -5 -18 -3 -25 4 -20 6 3 13 20 17 36 7 33 12 35
49 20 14 -5 28 -5 31 -1 3 5 -10 14 -28 21 -31 11 -31 12 -13 26 11 7 23 14
28 14 4 0 8 5 8 10 0 12 -10 13 -29 1z"/>
<path d="M1015 1680 c-4 -6 -11 -8 -16 -5 -5 4 -12 -1 -15 -9 -3 -9 -14 -16
-24 -16 -11 0 -22 -5 -26 -12 -5 -8 0 -9 14 -6 13 4 20 2 16 -4 -9 -14 -12
-58 -5 -58 4 0 12 14 18 31 11 28 14 30 47 23 24 -4 36 -2 36 5 0 6 -11 11
-25 11 -27 0 -34 15 -10 24 16 6 21 26 6 26 -6 0 -13 -5 -16 -10z"/>
<path d="M1336 1675 c-9 -9 -20 -13 -26 -10 -6 4 -10 -5 -10 -19 0 -22 -5 -26
-27 -26 -20 0 -24 -3 -14 -9 9 -6 10 -11 2 -15 -6 -4 -11 -12 -11 -19 0 -8 3
-8 12 1 20 20 29 14 22 -14 -5 -18 -3 -25 4 -20 6 3 13 20 17 36 6 29 9 30 41
24 22 -4 34 -2 34 5 0 6 -13 11 -30 11 -36 0 -37 6 -8 37 24 26 19 43 -6 18z"/>
<path d="M1885 1663 c-6 -18 -12 -22 -33 -16 -17 4 -23 2 -18 -6 4 -6 15 -11
24 -11 14 -1 12 -5 -7 -21 -13 -11 -21 -22 -18 -26 4 -3 14 0 23 8 16 13 17
11 12 -14 -3 -15 -1 -30 3 -33 5 -3 12 8 15 25 7 35 9 36 44 16 30 -17 40 -18
40 -4 0 5 -17 17 -37 26 -41 17 -42 13 22 58 16 11 17 14 4 14 -9 1 -22 -6
-29 -14 -16 -20 -27 -19 -33 3 -4 14 -6 14 -12 -5z"/>
<path d="M1080 1590 c0 -19 -4 -21 -25 -16 -14 4 -25 2 -25 -3 0 -5 8 -11 18
-14 14 -3 13 -6 -8 -16 -25 -11 -24 -11 5 -5 28 5 29 5 12 -14 -21 -22 -23
-39 -3 -23 12 10 13 8 9 -8 -3 -12 -1 -21 6 -21 6 0 11 10 11 23 0 36 14 51
30 32 7 -8 20 -15 28 -15 12 0 13 3 4 12 -9 9 -7 15 6 25 15 12 13 13 -18 7
l-35 -6 23 24 c31 34 28 47 -5 17 -19 -18 -25 -19 -20 -7 3 10 2 20 -3 23 -6
4 -10 -4 -10 -15z"/>
<path d="M802 1584 c-17 -12 -22 -12 -23 -2 0 7 -5 3 -11 -9 -6 -13 -20 -24
-32 -24 -18 -1 -18 -2 -3 -6 18 -5 18 -6 1 -24 -16 -18 -16 -19 4 -19 14 0 22
6 22 16 0 9 6 14 13 11 6 -3 20 -8 30 -12 10 -4 17 -3 17 5 0 6 -9 14 -19 17
-18 5 -18 7 7 28 31 27 26 42 -6 19z"/>
<path d="M1697 1594 c-4 -4 -7 -18 -7 -32 0 -25 0 -25 -47 -5 -7 3 -13 0 -13
-6 0 -6 9 -11 20 -11 23 0 26 -10 8 -28 -16 -16 4 -16 21 1 11 10 12 8 7 -10
-4 -12 -2 -24 4 -28 6 -4 10 4 10 18 0 32 8 38 31 24 10 -6 22 -8 26 -3 4 4 0
12 -10 18 -18 9 -18 11 4 34 17 19 19 24 7 24 -9 0 -22 -7 -29 -16 -12 -15
-14 -15 -19 5 -3 13 -8 19 -13 15z"/>
<path d="M676 1571 c-11 -12 -16 -24 -12 -28 9 -9 39 22 34 37 -2 7 -10 4 -22
-9z"/>
<path d="M2100 1571 c0 -5 9 -13 20 -16 26 -8 16 -25 -15 -25 -13 0 -27 -4
-30 -10 -3 -5 4 -10 16 -10 18 0 19 -2 9 -15 -21 -25 -2 -31 20 -7 27 29 36
28 49 -8 14 -41 25 -38 18 5 -5 32 -4 35 18 35 13 0 27 5 31 11 5 8 -4 10 -30
7 -41 -5 -43 -2 -19 24 14 16 14 18 1 18 -9 0 -19 -7 -22 -16 -5 -14 -8 -14
-28 0 -26 18 -38 20 -38 7z"/>
<path d="M2335 1553 c-4 -13 -15 -23 -26 -23 -11 0 -19 -5 -19 -11 0 -6 7 -9
15 -5 17 6 21 -9 5 -19 -5 -3 -10 -14 -10 -23 0 -13 5 -12 21 8 20 24 21 24
16 3 -3 -13 -1 -26 4 -29 5 -3 9 8 9 25 0 26 4 30 40 36 22 4 40 11 40 16 0 6
-16 7 -37 3 -31 -5 -36 -4 -25 7 17 18 15 34 -2 20 -11 -9 -15 -9 -19 1 -4 8
-8 5 -12 -9z"/>
<path d="M595 1531 c-3 -7 2 -11 15 -11 20 0 20 -1 4 -25 -9 -14 -12 -25 -6
-25 6 0 13 6 15 13 3 7 6 4 6 -6 1 -28 21 -9 21 19 0 18 5 25 18 23 28 -2 46
1 39 7 -11 12 -105 16 -112 5z"/>
<path d="M910 1518 c0 -17 -3 -19 -12 -10 -17 17 -33 15 -18 -3 10 -12 9 -15
-6 -16 -18 0 -18 -1 -1 -8 17 -6 17 -8 -2 -25 -11 -10 -18 -23 -14 -29 3 -5
14 1 25 14 l19 24 -7 -27 c-7 -34 3 -37 16 -5 7 17 9 18 9 5 1 -10 6 -18 11
-18 6 0 8 11 4 26 -6 24 -5 25 15 15 25 -14 29 3 4 18 -17 9 -16 11 1 30 11
12 16 24 13 27 -4 4 -16 -4 -27 -17 -21 -24 -21 -24 -15 -1 4 13 2 22 -4 22
-6 0 -11 -10 -11 -22z"/>
<path d="M1462 1518 c-22 -22 -24 -22 -36 -5 -18 23 -25 22 -19 -4 5 -19 3
-21 -27 -14 -23 5 -30 4 -26 -4 4 -6 17 -11 29 -11 21 -1 21 -2 -5 -21 -16
-11 -28 -25 -28 -31 0 -5 12 0 28 12 l27 22 5 -31 c7 -42 26 -42 22 -1 -3 29
-1 32 15 25 27 -11 38 -11 41 0 1 6 -9 11 -23 13 -29 4 -33 18 -6 27 10 3 26
14 36 25 26 29 -4 27 -33 -2z"/>
<path d="M1955 1513 c-5 -15 -15 -23 -31 -23 -12 0 -26 -5 -30 -11 -5 -9 1
-10 22 -5 l29 6 -24 -20 c-13 -11 -21 -23 -18 -27 4 -3 14 0 23 8 15 12 16 11
10 -19 -5 -20 -4 -32 3 -32 6 0 13 12 17 28 10 49 13 52 43 52 16 0 33 5 36
10 4 6 -6 10 -22 10 -24 1 -25 2 -10 11 9 5 17 15 17 21 0 6 -10 3 -24 -6 -23
-14 -25 -14 -29 2 -4 14 -6 13 -12 -5z"/>
<path d="M522 1488 c-7 -7 -12 -18 -12 -26 0 -12 -2 -12 -16 -1 -15 12 -16 11
-10 -9 5 -13 3 -22 -3 -22 -6 0 -11 -7 -11 -15 0 -8 -9 -19 -20 -25 -11 -6
-18 -15 -14 -21 4 -6 12 -5 22 3 13 11 15 10 9 -4 -9 -26 8 -22 21 5 6 12 11
16 11 10 1 -7 5 -13 10 -13 5 0 7 10 4 21 -5 19 -4 20 16 9 28 -14 44 -3 17
12 -18 10 -18 11 5 29 13 10 20 21 16 25 -4 4 -16 -1 -27 -11 -22 -20 -26 -14
-9 17 13 23 8 33 -9 16z"/>
<path d="M2480 1490 c0 -5 -7 -10 -15 -10 -9 0 -15 -9 -15 -23 0 -16 -9 -28
-27 -36 -19 -9 -23 -15 -15 -20 7 -4 10 -15 6 -24 -8 -22 5 -22 22 1 12 15 13
13 14 -20 0 -21 5 -38 10 -38 6 0 10 22 10 49 0 42 3 50 23 54 12 4 31 13 42
22 20 16 20 16 0 12 -11 -3 -29 -8 -39 -13 -16 -6 -18 -4 -13 9 4 9 10 24 13
32 3 8 1 15 -5 15 -6 0 -11 -4 -11 -10z"/>
<path d="M1252 1468 c-12 -12 -22 -17 -22 -10 0 7 -4 12 -10 12 -5 0 -10 -9
-10 -19 0 -10 -7 -22 -16 -25 -8 -3 -12 -10 -9 -16 4 -6 11 -7 17 -4 7 5 9 -5
4 -29 -4 -21 -2 -38 3 -42 6 -3 13 11 17 34 5 33 11 40 35 45 37 7 38 25 2 18
l-28 -5 29 32 c34 35 23 43 -12 9z"/>
<path d="M697 1452 c-16 -15 -19 -15 -27 -2 -8 13 -10 12 -10 -2 0 -10 -7 -18
-17 -18 -9 0 -13 -3 -10 -7 4 -3 -1 -12 -11 -20 -16 -13 -16 -14 0 -9 13 4 15
1 11 -12 -6 -15 -5 -15 10 -3 15 12 17 11 17 -4 0 -9 6 -15 13 -12 6 2 11 12
11 21 -1 9 11 23 27 32 34 17 38 28 7 18 -20 -6 -21 -5 -9 10 19 23 9 30 -12
8z"/>
<path d="M1126 1432 c-27 -26 -28 -26 -21 -4 4 13 2 22 -4 22 -6 0 -11 -9 -11
-20 0 -14 -7 -20 -22 -21 -22 0 -22 -1 -3 -9 19 -8 19 -8 -5 -18 -14 -6 -19
-11 -12 -11 9 -1 11 -9 7 -23 -6 -22 -6 -22 9 -4 15 19 16 18 17 -15 2 -33 2
-33 6 -4 l5 30 14 -25 c7 -14 13 -19 14 -12 0 7 -5 22 -10 33 -10 17 -7 19 20
19 16 0 30 5 30 10 0 6 -12 10 -27 10 l-28 1 34 28 c19 15 30 31 24 34 -5 3
-22 -6 -37 -21z"/>
<path d="M1600 1434 c0 -24 -1 -24 -22 -10 -26 18 -38 20 -38 7 0 -5 9 -13 20
-16 23 -7 27 -25 6 -25 -8 0 -18 -5 -22 -11 -4 -8 1 -9 17 -4 21 7 22 6 10 -9
-17 -20 -7 -33 13 -17 12 10 13 8 9 -10 -4 -15 -3 -20 5 -15 7 4 12 19 12 33
l0 26 24 -22 c26 -25 46 -13 21 12 -20 21 -20 23 15 37 16 7 27 16 24 21 -3 5
-14 4 -26 -2 -15 -8 -19 -8 -14 0 11 17 -5 13 -26 -6 -19 -17 -19 -16 -13 10
5 17 3 27 -4 27 -6 0 -11 -12 -11 -26z"/>
<path d="M1800 1428 c-1 -22 -1 -22 -15 -4 -18 24 -30 15 -16 -12 15 -28 14
-32 -9 -32 -11 0 -20 -4 -20 -10 0 -5 8 -10 17 -10 13 0 14 -3 5 -12 -17 -17
-15 -33 3 -18 12 10 15 9 15 -4 0 -10 5 -14 10 -11 6 3 10 16 10 27 0 20 1 20
18 5 23 -21 39 -22 22 -2 -10 13 -9 15 10 15 28 0 21 24 -9 28 -22 3 -22 4 -5
23 9 10 14 22 10 26 -4 4 -11 1 -16 -7 -8 -13 -10 -12 -10 3 0 26 -20 21 -20
-5z"/>
<path d="M2020 1385 c0 -32 -2 -35 -30 -35 -16 0 -30 -5 -30 -11 0 -6 9 -8 23
-4 18 6 20 5 10 -6 -19 -19 -16 -34 3 -18 15 12 16 10 10 -19 -5 -18 -4 -32 2
-32 5 0 12 18 16 40 6 36 8 39 26 30 24 -13 40 -13 40 1 0 6 -9 13 -20 16 -24
6 -25 11 -3 35 11 13 12 18 3 18 -7 0 -19 -8 -27 -17 -12 -16 -13 -15 -7 10 4
17 2 27 -5 27 -6 0 -11 -16 -11 -35z"/>
<path d="M2232 1398 c-18 -18 -21 -19 -16 -5 3 10 1 17 -5 17 -6 0 -11 -10
-12 -22 l0 -23 -11 23 c-6 12 -15 22 -20 22 -11 0 -10 -7 2 -31 9 -16 7 -19
-15 -19 -14 0 -25 -4 -25 -10 0 -5 10 -10 22 -10 20 0 21 -1 3 -20 -20 -22 -8
-28 14 -7 11 10 13 5 8 -25 -3 -21 -2 -38 4 -38 5 0 9 14 9 30 0 39 12 38 27
-1 7 -17 17 -28 22 -24 7 4 6 16 -5 36 -17 35 -18 34 16 48 24 9 23 10 -10 10
l-35 1 29 23 c16 13 27 29 25 35 -3 8 -12 4 -27 -10z"/>
<path d="M845 1389 c-4 -6 -13 -8 -21 -5 -8 3 -14 -1 -14 -9 0 -9 -9 -15 -22
-15 -18 0 -20 -2 -8 -10 12 -7 12 -12 2 -22 -17 -17 -15 -33 3 -18 14 11 14
10 5 -14 -12 -34 -12 -36 0 -36 5 0 12 16 16 36 6 33 8 35 36 28 21 -4 28 -3
24 5 -4 6 -14 11 -22 11 -20 0 -18 10 8 37 12 13 16 23 10 23 -6 0 -14 -5 -17
-11z"/>
<path d="M957 1353 c-4 -3 -7 -17 -7 -31 0 -16 -7 -26 -21 -29 -15 -4 -17 -8
-8 -14 10 -6 9 -12 -5 -28 -20 -22 -9 -30 12 -9 9 9 12 5 12 -17 0 -23 3 -27
10 -15 5 8 10 25 10 38 0 17 6 22 25 22 14 0 25 4 25 9 0 4 -12 6 -27 3 l-27
-5 17 26 c21 32 22 41 3 34 -10 -4 -13 -1 -9 9 5 15 1 18 -10 7z"/>
<path d="M1269 1343 c-9 -2 -19 -17 -23 -34 -4 -21 -11 -29 -28 -30 -18 -1
-19 -2 -5 -6 18 -5 18 -6 1 -24 -19 -21 -6 -27 14 -7 10 10 11 5 6 -20 -4 -21
-3 -32 5 -32 6 0 11 16 11 35 0 32 2 35 30 35 17 0 30 5 30 10 0 6 -12 10 -26
10 l-25 0 20 29 c30 41 28 45 -10 34z"/>
<path d="M400 1313 l-13 -28 -8 25 -7 25 -1 -26 c-1 -18 -8 -29 -23 -34 l-23
-7 24 -7 c21 -6 22 -8 7 -20 -17 -14 -23 -36 -6 -26 6 3 10 -3 10 -14 0 -12 5
-21 10 -21 6 0 10 16 10 35 0 33 2 35 31 33 18 -2 34 2 36 8 2 7 -5 10 -22 7
-28 -6 -30 1 -10 37 17 29 18 40 7 40 -5 0 -15 -12 -22 -27z"/>
<path d="M532 1318 c-14 -7 -45 -55 -82 -127 -144 -284 -163 -316 -192 -319
-60 -7 -23 -20 77 -27 102 -7 115 -11 96 -31 -5 -5 -12 -20 -16 -34 -7 -22 -6
-23 8 -12 9 7 19 27 22 43 7 33 10 34 45 14 14 -8 32 -14 40 -14 9 0 5 6 -10
14 -22 13 -9 14 130 10 85 -3 247 -7 358 -10 181 -4 208 -6 238 -24 19 -11 34
-16 34 -11 0 5 -8 14 -17 19 -21 12 74 14 146 3 39 -6 42 -9 28 -21 -10 -7
-17 -18 -17 -24 0 -6 13 1 28 16 27 26 31 27 152 27 l123 0 -23 -25 c-29 -30
-18 -32 21 -4 28 19 31 20 54 5 31 -20 41 -20 25 -1 -11 13 -5 15 44 15 54 0
56 -1 44 -20 -14 -21 -28 -27 -28 -10 0 6 -8 10 -17 10 -15 0 -15 -3 4 -22 25
-25 47 -15 57 27 5 21 13 25 41 25 l34 0 -24 -36 c-26 -39 -31 -54 -16 -54 5
0 14 14 21 30 14 35 17 36 42 13 16 -14 18 -15 18 0 0 9 -5 19 -10 22 -5 3
-10 11 -10 17 0 7 33 9 98 6 89 -3 101 -6 136 -33 37 -28 39 -28 52 -11 7 11
15 22 16 26 2 4 58 5 126 2 l122 -4 -21 -35 c-12 -19 -18 -37 -14 -41 4 -4 10
-2 12 4 2 6 10 20 18 30 13 18 14 18 37 -3 36 -34 44 -28 14 12 l-27 35 125 0
c70 0 126 4 126 9 0 5 -8 11 -19 14 -10 2 -32 29 -50 60 -39 68 -42 71 -116
85 -51 10 -70 9 -115 -4 -30 -8 -75 -17 -100 -20 -45 -5 -45 -5 -88 51 -69 91
-101 92 -231 12 -41 -26 -108 -61 -150 -79 l-76 -33 -278 2 c-181 1 -291 6
-314 14 -20 6 -69 42 -108 79 -82 75 -100 82 -203 73 -66 -5 -72 -4 -106 23
-20 16 -50 57 -67 91 -39 78 -116 153 -157 153 -16 0 -42 2 -58 5 -16 2 -39
-1 -52 -7z m143 -106 c47 -122 85 -193 98 -185 5 3 7 -2 3 -13 -3 -11 -1 -26
4 -34 9 -13 10 -13 10 0 0 13 1 13 10 0 5 -8 10 -22 10 -30 0 -13 -1 -13 -10
0 -15 24 -11 -2 5 -30 9 -15 15 -19 15 -10 0 9 6 6 14 -9 l14 -24 7 23 7 23
14 -24 c7 -13 13 -19 13 -14 0 6 -6 21 -13 34 l-14 24 -7 -23 -7 -23 -14 24
c-7 13 -13 31 -13 39 0 9 6 4 14 -10 8 -14 14 -22 15 -18 0 3 3 15 6 25 4 14
4 15 -4 4 -8 -11 -11 -9 -17 9 -5 14 -10 18 -14 11 -4 -7 -17 10 -30 40 -15
31 -26 46 -31 39 -4 -7 -13 4 -24 29 -21 55 -20 64 4 21 27 -50 24 -32 -5 31
-16 35 -22 43 -18 24 3 -16 3 -28 0 -25 -9 8 -67 163 -63 168 9 8 86 -79 80
-90 -4 -7 -3 -8 5 -4 7 5 19 -9 33 -41 12 -26 21 -52 20 -56 -1 -5 2 -6 8 -2
6 4 17 -9 25 -27 8 -18 14 -27 15 -19 0 9 10 4 26 -13 15 -14 35 -26 45 -26
16 0 17 -4 9 -26 -6 -14 -9 -40 -9 -57 1 -25 4 -20 13 23 8 38 17 56 29 58 12
3 17 -3 16 -20 0 -21 -1 -22 -8 -3 -6 16 -11 7 -20 -40 -7 -33 -17 -68 -22
-78 -5 -10 -7 -22 -4 -27 4 -6 1 -10 -4 -10 -6 0 -11 6 -12 13 0 10 -2 10 -6
0 -2 -7 -19 -13 -37 -13 -29 0 -35 5 -51 40 -10 22 -20 38 -22 36 -3 -2 3 -18
11 -35 21 -40 21 -41 -15 -41 -32 0 -41 15 -124 207 -10 23 -22 40 -26 37 -5
-3 0 -21 11 -42 21 -42 90 -193 90 -198 0 -2 -16 -3 -35 -2 -33 1 -35 3 -75
93 -43 99 -46 110 -29 99 7 -4 7 2 -1 17 -18 34 -24 38 -15 10 5 -16 4 -21 -4
-17 -6 4 -11 12 -11 18 0 15 -62 149 -67 145 -4 -5 44 -118 111 -261 25 -54
46 -101 46 -103 0 -5 -31 -1 -77 10 -13 3 -23 2 -23 -4 0 -28 -22 3 -74 104
l-58 112 19 45 20 45 32 -68 c18 -37 36 -65 40 -62 5 2 9 -1 8 -8 -1 -30 4
-48 11 -43 4 2 8 -3 8 -12 1 -9 4 -24 8 -33 5 -10 2 -16 -8 -16 -17 0 -29 24
-21 38 6 8 -21 69 -31 69 -2 0 0 -9 6 -21 7 -11 9 -23 7 -26 -3 -3 -13 9 -21
26 -19 35 -20 45 -5 35 6 -3 3 8 -5 25 -9 17 -19 31 -22 31 -2 0 0 -9 6 -21 7
-11 9 -23 7 -26 -3 -3 -12 8 -20 24 l-15 28 1 -27 c1 -14 7 -26 12 -25 6 1 9
-6 9 -15 -1 -10 3 -15 9 -11 6 4 8 0 4 -10 -4 -11 8 -43 30 -84 20 -37 39 -61
41 -54 4 11 6 11 13 0 6 -9 9 -10 9 -2 0 6 -4 15 -10 18 -5 3 -10 11 -10 17 0
6 3 8 7 5 3 -4 13 -1 21 6 13 10 15 9 9 -6 -5 -12 -3 -16 5 -11 8 5 9 1 4 -12
-4 -10 -4 -15 0 -11 4 4 13 -1 21 -11 7 -9 -2 17 -20 58 -58 127 -70 149 -80
143 -5 -3 -7 3 -3 13 3 11 1 26 -5 34 -8 12 -9 9 -4 -10 3 -14 -6 -3 -21 24
-14 27 -22 51 -16 55 5 3 13 20 19 36 l10 30 17 -30 c9 -16 14 -21 11 -10 -17
48 -17 57 1 73 11 11 36 19 65 19 l46 2 38 -97z m-213 -249 c29 -54 54 -101
56 -104 2 -4 -9 -6 -23 -6 -22 0 -31 10 -61 70 -27 52 -38 66 -45 56 -7 -12
-9 -12 -9 0 0 8 -2 12 -5 9 -3 -3 6 -30 20 -62 27 -62 28 -66 18 -66 -5 0 -21
23 -37 51 -25 45 -27 54 -16 75 7 13 16 21 20 19 4 -3 7 3 6 13 0 9 4 16 11
15 7 -2 10 4 7 12 -4 8 -4 15 -1 15 3 0 29 -44 59 -97z m605 73 c3 -3 -2 -42
-11 -86 -10 -45 -15 -84 -13 -87 5 -4 17 44 32 130 4 20 11 37 15 37 12 0 70
-57 70 -69 0 -6 4 -11 9 -11 5 0 23 -13 40 -29 25 -24 30 -35 25 -55 -5 -23
-11 -26 -51 -26 -35 0 -44 3 -40 14 3 8 8 32 11 53 l6 38 -11 -35 c-6 -19 -15
-44 -20 -55 -8 -16 -9 -14 -5 10 14 93 13 103 -1 44 l-17 -65 -42 0 c-41 0
-42 1 -53 40 l-10 41 4 -40 4 -40 -39 0 c-45 0 -44 -4 -28 84 11 56 13 62 18
36 6 -27 7 -24 14 23 4 28 12 52 17 52 5 0 7 -10 4 -22 -10 -46 -24 -152 -21
-156 5 -4 10 23 27 121 11 64 12 67 36 62 14 -2 28 -6 30 -9z m1179 -43 c-14
-114 -14 -160 1 -65 9 56 20 102 24 102 5 0 9 -7 9 -16 0 -8 4 -13 9 -9 5 3
12 -3 15 -12 8 -23 63 -83 79 -84 7 -1 17 -1 22 0 6 0 12 -10 13 -23 1 -12 6
-34 11 -47 7 -18 8 -11 4 27 l-5 51 43 8 c24 4 49 9 54 11 34 12 65 15 65 7 0
-5 13 -8 29 -5 28 4 30 2 40 -50 l10 -53 -4 54 c-5 67 6 58 22 -17 l12 -57 -5
55 -5 55 25 -30 c14 -16 25 -38 26 -47 0 -10 5 -18 10 -18 6 0 10 -6 10 -14 0
-10 -10 -12 -37 -9 -21 3 -41 10 -44 15 -4 6 -9 5 -11 -3 -8 -23 -20 -3 -34
58 -13 58 -13 58 -8 9 3 -27 8 -55 11 -62 5 -14 -9 -17 -87 -17 -54 0 -60 3
-61 26 l-2 22 -4 -23 c-4 -21 -9 -22 -79 -20 -69 2 -88 8 -64 23 5 3 19 20 31
38 l23 32 -22 -19 c-23 -20 -31 -9 -10 12 7 7 9 12 6 12 -4 0 -21 -19 -39 -42
-29 -38 -30 -40 -6 -19 15 14 27 20 27 14 0 -17 -41 -48 -64 -48 -11 0 -24 6
-28 15 -6 13 -7 13 -7 -1 -1 -13 -10 -14 -51 -9 -28 4 -63 6 -78 5 -15 -1 -30
3 -34 9 -5 7 -8 6 -8 -3 0 -11 -4 -9 -15 5 -15 19 -15 19 -8 -1 8 -26 -5 -13
-31 30 l-21 35 -14 -23 c-13 -20 -13 -21 2 -9 13 11 17 10 26 -7 6 -11 11 -23
11 -28 0 -4 -34 -9 -75 -10 -65 -2 -75 0 -76 15 0 15 -1 15 -7 1 -5 -12 -23
-15 -79 -15 -44 0 -73 4 -73 10 0 7 -3 8 -8 1 -9 -13 -82 -14 -82 -2 0 5 -7 4
-15 -3 -8 -7 -15 -9 -15 -4 0 5 -39 8 -87 7 -61 -2 -89 1 -95 10 -6 9 -8 9 -8
-1 0 -16 -51 -13 -62 3 -5 6 -8 6 -8 -2 0 -8 -14 -10 -47 -6 -57 6 -57 6 -48
32 4 14 12 18 28 15 12 -3 28 -6 35 -6 6 -1 12 -8 12 -17 0 -11 3 -12 8 -4 10
16 272 15 272 -1 0 -6 5 -4 10 4 9 13 11 13 20 0 5 -8 10 -10 10 -4 0 7 13 10
33 8 64 -7 114 -6 167 2 65 9 56 7 105 29 22 9 50 18 62 19 11 0 19 4 17 7 -2
4 17 17 41 30 25 13 46 28 46 34 1 5 5 -8 9 -30 l7 -40 3 45 c3 38 5 33 10
-30 l6 -75 2 78 c2 71 14 101 25 60 3 -12 5 -8 6 9 1 26 13 34 55 37 16 1 18
-4 12 -46z m-1724 -26 c3 4 3 2 1 -5 -1 -7 4 -26 12 -43 9 -16 13 -29 10 -29
-4 0 -56 93 -63 115 -2 6 5 -3 16 -18 11 -16 22 -25 24 -20z m-96 -56 c13 -28
19 -51 15 -51 -7 0 -20 29 -50 105 -11 30 15 -11 35 -54z m-57 -7 c12 -19 21
-36 21 -38 0 -1 -20 -3 -45 -3 -31 -1 -45 3 -42 11 3 6 9 10 15 9 7 -2 9 5 6
15 -4 11 1 8 15 -8 23 -28 28 -16 6 14 -17 22 -19 36 -6 36 5 0 18 -16 30 -36z"/>
<path d="M561 1288 c-1 -4 8 -30 19 -58 21 -54 27 -86 10 -60 -13 21 -12 6 1
-24 7 -14 17 -23 22 -19 6 4 8 0 4 -11 -4 -10 -3 -15 3 -11 6 3 7 18 4 33 -4
19 -3 23 4 13 8 -11 11 -11 16 0 3 8 4 3 2 -9 -6 -34 4 -58 16 -40 7 9 8 5 4
-12 -2 -14 2 -36 10 -50 9 -14 13 -18 11 -10 -3 8 -8 24 -12 35 -3 11 19 -27
49 -85 30 -58 55 -101 55 -96 1 4 -28 70 -63 145 -35 75 -73 164 -86 199 -16
43 -26 59 -31 50 -5 -7 -9 -17 -9 -23 0 -5 5 -3 10 5 11 17 13 0 3 -26 -5 -14
-10 -10 -24 22 -10 21 -18 36 -18 32z m75 -122 c-2 -6 -5 -2 -6 9 -1 16 -4 14
-14 -10 -12 -29 -12 -29 -10 15 2 66 3 68 20 31 8 -19 12 -39 10 -45z"/>
<path d="M521 1269 c-2 -19 168 -393 176 -386 1 2 -31 77 -72 168 -100 218
-104 225 -104 218z"/>
<path d="M744 1183 c46 -126 71 -181 77 -166 4 14 7 11 13 -11 4 -16 9 -26 12
-23 3 2 -3 23 -12 47 -10 24 -20 37 -24 30 -4 -6 -19 22 -34 64 -16 42 -30 76
-33 76 -3 0 -2 -8 1 -17z"/>
<path d="M701 1095 c0 -5 18 -44 39 -85 21 -41 39 -70 39 -65 0 6 -18 44 -39
85 -21 41 -39 71 -39 65z"/>
<path d="M890 1002 c0 -10 -4 -22 -9 -27 -6 -6 -3 -25 10 -50 11 -22 16 -31
12 -20 -4 11 -6 41 -5 68 2 26 0 47 -3 47 -3 0 -5 -8 -5 -18z"/>
<path d="M700 986 c0 -10 60 -126 65 -126 3 0 -9 28 -26 63 -33 65 -39 75 -39
63z"/>
<path d="M446 939 c19 -39 37 -69 39 -67 5 5 -64 138 -71 138 -2 0 12 -32 32
-71z"/>
<path d="M2206 952 l1 -67 -7 55 -7 55 -1 -45 c-1 -25 1 -63 5 -85 6 -36 7
-38 14 -15 10 35 11 158 1 164 -4 2 -7 -26 -6 -62z"/>
<path d="M2100 913 l-1 -48 -15 28 c-9 16 -18 27 -20 24 -4 -4 34 -77 40 -77
2 0 4 27 5 60 1 33 -1 60 -4 60 -3 0 -5 -21 -5 -47z"/>
<path d="M2289 924 c-6 -7 -9 -30 -7 -52 l3 -39 28 41 c24 35 24 37 4 14 l-25
-26 2 28 c1 16 5 32 10 37 5 5 7 1 3 -9 -8 -24 0 -23 12 0 8 14 6 19 -5 19 -8
0 -19 -6 -25 -13z"/>
<path d="M2572 925 c-1 -30 26 -104 28 -80 1 20 1 20 10 0 11 -25 11 1 0 35
l-8 25 -2 -25 c-2 -19 -5 -15 -15 20 -7 25 -13 36 -13 25z"/>
<path d="M2512 900 c0 -8 4 -26 8 -40 l8 -25 1 25 c2 25 2 25 16 -5 7 -16 14
-23 14 -15 1 13 2 13 11 0 12 -18 12 -2 0 25 -9 20 -9 20 -10 0 -1 -14 -5 -10
-15 15 -10 25 -14 29 -15 15 -1 -20 -1 -20 -10 0 -5 12 -8 14 -8 5z"/>
<path d="M2381 862 c-16 -22 -17 -29 -5 -29 7 0 14 7 15 16 0 12 3 11 9 -4 7
-17 9 -15 9 13 1 39 -2 40 -28 4z"/>
<path d="M1394 1308 c3 -10 9 -25 12 -33 5 -11 -1 -15 -20 -15 -14 0 -26 -5
-26 -11 0 -6 9 -8 22 -4 22 8 22 8 1 -42 -3 -7 0 -13 5 -13 6 0 14 9 17 20 8
24 21 26 29 5 3 -8 10 -15 16 -15 7 0 8 6 0 19 -14 27 -13 31 10 31 11 0 20 5
20 11 0 7 -9 9 -21 6 -18 -5 -20 -2 -14 25 5 21 4 28 -4 24 -6 -4 -11 -15 -11
-24 0 -13 -5 -12 -21 8 -13 16 -19 19 -15 8z"/>
<path d="M2650 1285 c0 -27 -9 -32 -28 -13 -7 7 -12 8 -12 2 0 -5 5 -15 12
-22 9 -9 7 -13 -5 -18 -24 -9 -21 -27 3 -19 18 6 20 2 20 -35 0 -25 4 -39 10
-35 6 3 10 22 10 42 l0 36 25 -23 c14 -13 27 -21 30 -18 3 2 -4 13 -15 23 -29
27 -25 35 20 35 23 0 40 5 40 11 0 8 -16 10 -50 5 l-50 -7 6 31 c4 19 2 30 -5
30 -6 0 -11 -11 -11 -25z"/>
<path d="M2503 1277 c-25 -33 -33 -34 -25 -5 3 14 2 19 -6 14 -7 -4 -12 -17
-12 -29 0 -22 -1 -22 -21 3 l-21 25 6 -27 c5 -22 3 -26 -9 -22 -8 4 -15 1 -15
-5 0 -6 9 -11 20 -11 11 0 20 -4 20 -10 0 -5 -4 -10 -10 -10 -5 0 -10 -4 -10
-10 0 -5 7 -7 16 -3 14 5 15 3 5 -15 -13 -25 -14 -32 -2 -32 5 0 13 10 16 21
7 21 8 21 31 -7 27 -33 31 -17 8 28 l-16 31 40 -7 c23 -3 43 -2 46 3 6 10 -51
24 -65 15 -17 -10 -9 9 12 32 12 12 19 28 17 35 -2 7 -12 2 -25 -14z"/>
<path d="M1620 1246 c0 -8 5 -18 10 -21 16 -10 12 -25 -7 -26 -12 -1 -9 -4 7
-8 l25 -7 -27 -18 c-24 -15 -25 -20 -13 -32 19 -19 22 -18 30 14 l7 27 24 -30
c17 -22 24 -25 24 -13 0 9 -4 20 -10 23 -20 12 -9 21 20 17 18 -3 30 0 30 7 0
6 -10 11 -22 11 -22 1 -22 1 5 18 15 9 27 20 27 24 0 13 -23 9 -44 -7 -26 -20
-36 -19 -36 3 0 14 -2 15 -10 2 -8 -13 -11 -11 -16 8 -7 24 -24 30 -24 8z"/>
<path d="M1860 1234 c0 -24 -3 -26 -30 -21 -16 4 -32 2 -35 -3 -3 -6 5 -10 19
-10 14 0 26 -4 26 -10 0 -5 -4 -10 -10 -10 -5 0 -10 -7 -10 -16 0 -14 3 -14
15 -4 13 11 15 8 15 -14 0 -16 4 -25 10 -21 6 3 10 19 10 36 0 16 1 29 3 29 1
0 17 -4 34 -9 18 -5 35 -6 38 -1 6 10 -18 20 -48 20 l-22 1 23 18 c12 11 22
25 22 32 0 8 -7 6 -20 -6 -18 -16 -20 -16 -20 -2 0 10 -4 17 -10 17 -5 0 -10
-12 -10 -26z"/>
<path d="M1115 1226 c-16 -25 -18 -25 -31 -9 -12 17 -13 16 -14 -4 0 -17 -4
-21 -17 -17 -17 5 -16 4 0 -9 17 -14 17 -16 1 -25 -9 -5 -18 -22 -20 -38 l-3
-29 18 24 c14 18 20 21 24 10 5 -12 6 -12 6 0 1 11 5 10 15 -5 8 -10 18 -16
22 -12 4 5 0 16 -10 26 -15 18 -14 20 24 37 22 10 40 22 40 27 0 11 -7 10 -41
-8 l-31 -15 23 30 c12 17 20 33 17 37 -4 3 -14 -6 -23 -20z"/>
<path d="M2304 1228 c-6 -21 -7 -21 -20 -3 -13 17 -14 17 -14 -12 0 -21 -7
-33 -22 -42 l-23 -12 23 5 c15 3 22 0 19 -7 -15 -41 -17 -57 -8 -57 6 0 11 7
11 16 0 10 6 14 15 10 11 -4 15 2 15 20 0 20 8 29 40 42 22 9 40 20 40 25 0
11 -18 8 -52 -9 l-32 -17 17 26 c19 30 21 37 8 37 -5 0 -13 -10 -17 -22z"/>
<path d="M2080 1211 c0 -24 -4 -31 -20 -31 -11 0 -20 -4 -20 -10 0 -5 4 -10
10 -10 5 0 6 -8 3 -17 -5 -12 -2 -15 10 -10 14 5 16 2 11 -18 -4 -15 -2 -25 4
-25 6 0 12 17 14 38 3 33 6 37 33 40 17 2 35 8 40 14 7 7 0 9 -22 6 -36 -5
-42 2 -18 22 9 7 13 15 10 18 -3 3 -15 -3 -27 -14 -19 -17 -21 -17 -15 -2 3
10 2 20 -3 23 -6 4 -10 -7 -10 -24z"/>
<path d="M180 1179 c0 -12 -5 -16 -15 -13 -8 4 -15 2 -15 -4 0 -5 8 -13 18
-17 15 -6 13 -9 -10 -21 -29 -15 -39 -30 -14 -21 11 4 13 1 9 -11 -6 -15 -5
-16 12 -2 17 14 18 13 12 -2 -3 -10 -2 -20 3 -23 11 -7 24 31 15 45 -8 13 7
13 23 0 6 -6 10 -7 7 -3 -3 3 2 14 11 24 10 11 12 19 5 24 -6 3 -11 1 -11 -4
0 -6 -7 -11 -15 -11 -19 0 -19 10 0 37 13 19 13 21 -10 21 -18 0 -25 -6 -25
-19z"/>
<path d="M956 1183 c-6 -15 -8 -15 -16 -3 -7 11 -10 12 -10 2 0 -7 -5 -10 -12
-6 -8 5 -9 0 -6 -14 5 -18 2 -22 -19 -22 -14 0 -22 -4 -18 -10 4 -6 11 -7 17
-4 7 5 9 1 5 -9 -4 -11 -2 -14 9 -10 12 4 14 0 8 -22 -6 -25 -5 -26 15 -14 13
9 19 20 15 31 -4 13 0 18 15 18 12 0 21 5 21 10 0 6 -7 10 -15 10 -18 0 -18 5
-4 32 6 11 9 22 6 24 -2 3 -8 -3 -11 -13z"/>
<path d="M2881 1180 c-12 -11 -27 -18 -31 -15 -5 3 -11 1 -14 -4 -3 -5 -15 -7
-26 -4 -11 3 -20 0 -20 -6 0 -6 7 -11 16 -11 14 0 15 -2 3 -17 -12 -15 -12
-16 5 -10 14 6 17 4 12 -8 -3 -8 -9 -22 -12 -30 -3 -8 -2 -15 4 -15 6 0 16 15
22 34 10 32 13 34 40 26 17 -5 32 -5 35 0 3 4 -7 11 -22 14 l-26 7 34 29 c20
18 28 29 19 29 -8 0 -26 -8 -39 -19z"/>
<path d="M1225 1130 c-4 -13 -16 -20 -33 -21 -17 -1 -21 -3 -9 -6 21 -5 22
-22 2 -29 -8 -4 -15 -10 -15 -16 0 -5 5 -6 12 -2 8 5 9 2 5 -9 -3 -10 -2 -17
3 -17 5 0 12 9 15 20 8 24 18 25 50 4 15 -10 25 -12 25 -6 0 6 -9 16 -20 22
-20 10 -19 11 7 35 16 13 25 27 20 31 -4 4 -17 -3 -28 -15 -25 -26 -35 -22
-19 8 6 13 7 21 1 21 -5 0 -13 -9 -16 -20z"/>
<path d="M1467 1120 c-8 -21 -18 -30 -34 -30 -13 0 -23 -5 -23 -11 0 -6 9 -8
23 -4 21 6 21 6 3 -9 -11 -9 -15 -16 -8 -16 8 0 9 -11 5 -32 -8 -42 12 -29 27
18 10 28 16 35 32 31 23 -6 48 1 48 14 0 5 -7 9 -15 9 -8 0 -15 4 -15 9 0 5 7
11 15 15 8 3 15 12 15 21 0 8 -7 15 -15 15 -8 0 -15 -7 -15 -15 0 -8 -4 -15
-10 -15 -5 0 -7 7 -4 15 4 8 1 15 -6 15 -6 0 -17 -13 -23 -30z"/>
<path d="M2720 1111 c0 -11 -10 -27 -22 -35 -12 -9 -23 -21 -24 -28 -1 -7 -5
-21 -9 -30 -10 -26 10 -22 28 5 16 22 16 22 16 -11 1 -19 5 -31 11 -27 6 3 10
21 10 40 0 29 4 34 30 40 16 4 33 11 36 17 4 7 -5 8 -26 3 -21 -5 -30 -4 -26
3 8 13 -3 42 -15 42 -5 0 -9 -9 -9 -19z"/>
<path d="M1932 1070 c-10 -16 -16 -18 -38 -9 -15 5 -29 7 -32 5 -3 -3 3 -8 12
-12 22 -9 20 -24 -4 -24 -11 0 -20 -5 -20 -11 0 -6 9 -8 23 -3 l22 6 -24 -26
c-27 -29 -18 -36 12 -8 19 16 20 16 14 -6 -3 -15 -1 -22 6 -19 6 2 14 14 17
28 4 16 8 20 14 11 4 -6 14 -12 23 -12 14 0 14 3 -2 20 -18 19 -17 20 3 20 12
0 22 5 22 10 0 6 -11 8 -27 4 -27 -7 -28 -6 -10 13 9 11 17 23 17 26 0 14 -16
6 -28 -13z"/>
<path d="M48 1055 c-27 -37 -21 -54 7 -20 13 17 24 33 25 38 0 14 -15 6 -32
-18z"/>
<path d="M254 1020 c-7 -42 -18 -58 -29 -40 -3 5 -10 10 -14 10 -11 0 -45 -79
-38 -87 4 -3 14 11 23 33 15 35 17 37 29 20 18 -25 31 -14 38 31 3 21 8 46 12
56 4 10 3 17 -4 17 -6 0 -14 -18 -17 -40z"/>
<path d="M1653 1045 c-7 -8 -13 -18 -13 -23 0 -6 -9 -12 -20 -15 -28 -7 -25
-26 3 -20 20 4 21 3 5 -10 -22 -17 -23 -28 -4 -21 8 3 16 -2 19 -13 4 -17 5
-17 6 1 1 16 3 17 18 5 15 -13 16 -11 10 12 -6 25 -4 27 34 32 42 5 57 13 47
23 -4 3 -22 1 -42 -4 -31 -9 -36 -8 -41 9 -4 10 -3 23 0 29 9 15 -8 11 -22 -5z"/>
<path d="M1341 1032 c-1 -14 -10 -26 -26 -32 -28 -11 -35 -33 -7 -23 14 5 15
3 5 -8 -7 -7 -13 -20 -13 -28 1 -13 4 -12 17 4 15 19 15 19 9 -7 -4 -16 -2
-28 3 -28 4 0 11 14 15 31 5 28 8 30 35 24 17 -3 32 -2 36 4 4 7 -7 11 -29 11
-20 0 -36 2 -36 5 0 3 12 17 28 30 15 13 24 27 20 31 -5 4 -17 -1 -27 -10 -18
-17 -19 -17 -24 1 -4 14 -5 13 -6 -5z"/>
<path d="M2859 1003 c-7 -20 -13 -23 -21 -15 -16 16 -31 15 -25 0 2 -7 -3 -21
-12 -32 -15 -18 -15 -18 7 -11 22 6 23 5 12 -15 -6 -12 -9 -25 -5 -28 8 -9 35
27 35 46 0 10 6 12 18 7 36 -15 52 -17 52 -7 0 6 -7 15 -17 20 -14 9 -14 11 5
21 12 7 22 16 22 22 0 6 -7 6 -19 -1 -28 -14 -41 -12 -35 5 4 8 3 15 0 15 -4
0 -11 -12 -17 -27z"/>
<path d="M142 933 c-17 -23 -22 -25 -36 -14 -9 7 -22 11 -30 8 -18 -7 -49 -64
-43 -80 2 -7 12 5 22 26 20 40 26 43 55 27 15 -8 23 -4 40 21 12 16 20 32 17
35 -2 3 -14 -7 -25 -23z"/>
<path d="M70 828 c-22 -36 -25 -48 -12 -48 5 0 16 16 25 36 l17 35 29 -20 c16
-12 37 -21 48 -21 11 0 1 10 -26 25 -23 14 -47 25 -52 25 -5 0 -18 -15 -29
-32z"/>
<path d="M220 833 c0 -5 9 -18 20 -28 16 -15 22 -15 35 -5 8 7 15 17 15 22 0
6 -7 5 -15 -2 -13 -10 -19 -10 -35 5 -11 10 -20 14 -20 8z"/>
<path d="M577 785 c-14 -28 -21 -35 -35 -30 -45 20 -68 17 -80 -10 -7 -14 -12
-33 -12 -41 0 -25 18 -6 25 26 4 17 8 30 10 30 1 0 19 -7 38 -15 20 -8 39 -15
41 -15 10 0 37 62 34 77 -2 10 -10 2 -21 -22z"/>
<path d="M702 809 c2 -6 20 -21 39 -32 l36 -21 36 23 c50 30 47 48 -2 20 l-39
-22 -30 22 c-34 23 -46 27 -40 10z"/>
<path d="M612 790 c-7 -11 -8 -20 -3 -20 6 0 14 8 20 17 8 14 11 15 25 4 18
-15 32 -9 21 8 -11 18 -49 12 -63 -9z"/>
<path d="M935 790 c-10 -11 -15 -23 -11 -27 3 -4 13 3 22 15 14 21 16 21 39 6
23 -15 27 -15 51 1 14 9 23 19 20 22 -3 4 -14 -1 -24 -10 -16 -15 -21 -15 -38
-2 -26 20 -38 19 -59 -5z"/>
<path d="M313 762 l-31 -37 -26 24 c-13 13 -30 21 -36 19 -7 -2 4 -17 25 -32
l37 -28 39 38 c37 36 48 55 32 53 -5 0 -22 -17 -40 -37z"/>
<path d="M1371 779 c-20 -19 -24 -20 -40 -5 -28 26 -37 18 -11 -9 30 -32 34
-31 60 5 25 35 22 38 -9 9z"/>
<path d="M1610 781 c-18 -15 -29 -17 -43 -9 -10 5 -21 7 -24 4 -3 -3 6 -10 19
-17 21 -9 30 -8 52 6 14 10 26 21 26 26 0 12 -1 12 -30 -10z"/>
<path d="M2082 788 c-7 -7 -12 -19 -12 -27 0 -11 4 -11 19 3 12 11 21 14 26 7
3 -6 14 -11 23 -11 14 1 13 4 -7 20 -27 23 -33 24 -49 8z"/>
<path d="M1070 755 c-32 -33 -34 -33 -61 -19 -39 20 -49 17 -19 -6 34 -27 52
-25 85 10 27 28 30 29 47 13 27 -24 32 -10 5 15 l-23 22 -34 -35z"/>
<path d="M78 731 c-16 -27 -28 -52 -28 -56 0 -15 22 9 41 46 l20 40 27 -19
c43 -30 52 -34 52 -23 0 9 -68 61 -80 61 -3 0 -17 -22 -32 -49z"/>
<path d="M831 754 c-29 -24 -37 -26 -60 -17 -63 25 -67 26 -41 4 42 -34 69
-35 100 -6 l27 26 26 -33 c15 -20 26 -27 26 -18 0 8 -10 28 -23 43 l-23 28
-32 -27z"/>
<path d="M2326 758 c-22 -31 -20 -45 4 -23 19 17 21 17 40 0 23 -21 39 -13 20
10 -27 33 -48 37 -64 13z"/>
<path d="M2410 775 c0 -6 11 -23 23 -39 l24 -29 22 32 c26 36 19 58 -8 24
l-18 -22 -22 22 c-11 12 -21 17 -21 12z"/>
<path d="M1182 738 c-23 -16 -42 -33 -42 -38 0 -5 20 4 44 21 36 26 47 29 64
20 25 -13 42 -14 42 -3 0 5 -15 13 -33 19 -29 9 -38 7 -75 -19z"/>
<path d="M1719 749 c-25 -25 -17 -39 9 -16 23 21 36 21 52 2 7 -9 15 -13 18
-10 8 7 -29 45 -45 45 -7 0 -22 -9 -34 -21z"/>
<path d="M2695 750 c-8 -24 -18 -25 -35 -5 -7 8 -20 15 -29 15 -11 0 -7 -9 16
-32 l32 -32 20 25 c22 26 27 49 12 49 -5 0 -13 -9 -16 -20z"/>
<path d="M2753 704 c3 -31 8 -58 10 -61 3 -2 29 14 58 36 30 23 57 41 62 41 4
0 7 4 7 9 0 7 -103 31 -135 31 -4 0 -5 -25 -2 -56z"/>
<path d="M1608 724 c-25 -25 -27 -26 -49 -10 -13 9 -28 16 -34 16 -13 -1 47
-50 61 -50 5 0 25 16 44 35 21 22 28 35 19 35 -8 0 -26 -12 -41 -26z"/>
<path d="M319 694 l-44 -45 -22 28 c-12 15 -25 24 -28 21 -7 -7 34 -68 46 -68
4 0 27 20 50 44 l43 44 18 -22 c14 -17 17 -18 18 -5 0 9 -8 23 -18 32 -17 16
-21 14 -63 -29z"/>
<path d="M593 710 c-20 -34 -26 -36 -43 -15 -21 25 -38 17 -60 -25 -11 -22
-16 -40 -10 -40 5 0 16 16 25 36 l15 36 24 -29 c24 -28 25 -28 40 -8 29 40 47
75 37 75 -5 0 -18 -13 -28 -30z"/>
<path d="M1374 715 c-16 -24 -18 -25 -35 -9 -21 19 -27 6 -7 -14 19 -19 32
-14 56 18 13 17 18 30 13 30 -6 0 -18 -11 -27 -25z"/>
<path d="M1405 704 c-15 -19 -25 -38 -22 -40 3 -3 17 11 33 31 l27 36 29 -27
c20 -20 28 -23 28 -12 0 19 -31 48 -52 48 -9 0 -28 -16 -43 -36z"/>
<path d="M2903 702 c-29 -21 -52 -40 -53 -43 0 -4 23 -9 50 -13 28 -4 57 -9
66 -13 13 -5 15 4 13 51 -1 33 -7 56 -13 55 -6 0 -34 -17 -63 -37z"/>
<path d="M631 699 c-31 -42 -19 -49 16 -9 25 28 31 30 55 21 15 -6 30 -6 33
-2 6 11 -19 21 -54 21 -19 0 -34 -9 -50 -31z"/>
<path d="M1820 723 c1 -12 48 -63 58 -63 11 0 24 41 16 49 -3 3 -9 -1 -14 -9
-8 -13 -12 -11 -25 8 -16 21 -35 30 -35 15z"/>
<path d="M2048 720 c-9 -6 -36 -37 -59 -70 -23 -33 -45 -60 -49 -60 -5 0 -51
23 -104 50 -133 69 -175 66 -278 -20 -69 -58 -72 -58 -160 1 -115 78 -176 76
-293 -11 -38 -28 -79 -53 -92 -56 -16 -4 -53 9 -125 46 -135 69 -150 68 -344
-30 -155 -79 -274 -152 -256 -158 6 -2 25 4 43 13 36 19 167 31 221 21 19 -3
74 -30 124 -58 l89 -52 110 2 c61 1 130 -1 155 -6 30 -6 66 -4 105 4 93 20
193 17 261 -7 88 -31 155 -28 234 10 77 37 101 38 177 9 32 -12 79 -22 105
-22 43 0 52 5 115 60 37 34 79 67 93 74 17 9 73 14 185 14 141 1 164 3 194 21
19 11 33 25 33 30 -1 6 -28 13 -59 16 l-58 6 57 1 c50 2 88 -3 186 -24 39 -8
24 15 -19 27 l-41 13 34 17 c36 18 68 49 51 49 -5 0 -34 -13 -64 -29 -30 -16
-76 -32 -104 -35 l-50 -6 40 13 c43 13 58 44 32 65 -7 6 -53 21 -103 32 -49
12 -114 29 -144 38 -66 19 -218 26 -242 12z m218 -29 c32 -10 100 -26 149 -36
94 -17 129 -35 108 -56 -7 -7 -76 -16 -170 -21 -177 -10 -192 -13 -174 -31 8
-8 67 -14 179 -17 155 -5 165 -6 137 -20 -22 -11 -72 -15 -190 -16 -98 0 -171
-5 -189 -12 -15 -7 -57 -39 -93 -71 -36 -33 -79 -62 -95 -65 -19 -4 -55 3
-100 19 -93 32 -132 32 -210 -5 -75 -35 -128 -38 -208 -10 -68 24 -183 26
-274 5 -60 -14 -72 -14 -127 0 -33 9 -68 14 -77 11 -9 -3 -49 -7 -89 -8 -67
-1 -75 1 -140 40 -37 23 -88 48 -112 57 -49 17 -140 20 -190 5 -39 -11 -33 -4
20 28 26 16 39 18 46 11 14 -14 34 -3 27 15 -3 8 20 24 67 44 l72 32 25 -25
c13 -14 29 -25 34 -25 10 0 1 38 -14 57 -7 9 -3 15 17 23 66 25 155 0 155 -45
0 -31 16 -41 31 -17 12 18 13 18 50 0 21 -10 42 -18 48 -18 5 0 14 -13 20 -30
13 -38 31 -39 31 -2 0 23 10 34 57 65 l56 37 22 -20 c12 -11 24 -20 28 -20 11
0 8 38 -3 45 -18 11 -11 23 22 34 47 16 94 4 174 -45 72 -44 109 -53 144 -34
15 8 20 6 25 -10 9 -29 25 -14 25 23 0 26 7 37 32 52 60 36 66 36 77 3 13 -36
35 -33 39 6 4 32 7 32 100 -20 54 -31 61 -37 52 -54 -6 -11 -9 -23 -8 -27 4
-15 -23 -53 -37 -53 -9 0 -15 -10 -15 -25 0 -28 -16 -32 -44 -10 -17 13 -17
47 1 44 25 -4 63 2 63 11 0 6 -14 9 -32 8 l-32 -3 3 50 3 50 -22 -28 c-12 -15
-20 -32 -18 -39 2 -6 -4 -20 -14 -30 -18 -18 -25 -44 -9 -34 5 4 7 -3 4 -15
-8 -28 -29 -35 -48 -15 -9 9 -23 16 -31 16 -8 0 -14 5 -14 11 0 6 14 9 33 7
27 -2 33 1 35 20 4 24 -7 29 -25 11 -7 -7 -19 -9 -29 -5 -16 6 -16 8 1 26 19
21 14 50 -9 50 -9 0 -19 -12 -22 -26 -4 -15 -15 -35 -25 -45 -11 -11 -19 -27
-19 -36 0 -14 2 -15 9 -5 6 10 10 7 13 -12 l5 -26 -83 0 c-68 0 -84 3 -84 15
0 9 -9 15 -25 15 -27 0 -28 1 -19 24 4 10 18 16 35 16 16 0 29 4 29 8 0 5 -14
6 -32 4 -27 -4 -30 -2 -23 14 11 29 11 46 -2 51 -6 2 -15 -6 -18 -18 -4 -13
-14 -30 -22 -38 -10 -10 -13 -25 -8 -49 4 -23 2 -38 -5 -42 -16 -10 -3 -50 15
-50 9 0 12 7 9 18 -5 16 -5 16 9 0 20 -25 47 -24 40 1 -5 18 0 20 53 18 33 -1
65 -6 72 -10 6 -5 12 -4 12 2 0 13 33 7 38 -7 2 -7 -5 -9 -18 -7 -17 3 -20 1
-15 -13 4 -12 0 -11 -18 6 -22 21 -37 21 -37 -1 0 -6 3 -7 7 -4 3 4 14 0 23
-8 16 -14 21 -14 59 6 22 11 41 27 41 35 0 8 5 14 11 14 6 0 8 -9 4 -20 -5
-14 -2 -20 10 -20 9 0 14 4 10 9 -3 5 -1 12 4 15 5 4 12 2 16 -4 3 -5 12 -10
18 -10 7 0 6 4 -3 10 -8 5 -10 10 -4 10 5 0 15 -5 22 -12 9 -9 12 -9 12 1 0 7
4 10 9 7 5 -4 11 -3 14 1 2 5 2 3 1 -4 -5 -19 18 -28 27 -11 5 10 26 15 66 16
l58 1 -24 -20 c-13 -10 -19 -19 -15 -20 5 0 22 -3 37 -5 17 -3 26 -1 23 5 -3
5 -2 19 2 32 l9 23 17 -27 c14 -21 20 -24 31 -14 7 7 11 16 8 21 -3 4 -9 3
-13 -3 -5 -9 -10 -8 -19 3 -11 12 -9 15 11 14 13 -1 29 -6 36 -11 9 -7 11 -6
6 6 -3 10 1 17 13 21 10 3 -7 4 -37 2 -55 -2 -56 -2 -55 26 0 15 -5 27 -10 25
-6 -1 -9 -6 -7 -10 1 -5 -2 -6 -8 -2 -10 6 -15 85 -4 85 3 0 14 -5 24 -10 17
-9 24 -2 56 47 20 32 46 66 57 75 31 24 145 24 223 -1z m92 -138 c-21 -2 -55
-2 -75 0 -21 2 -4 4 37 4 41 0 58 -2 38 -4z"/>
<path d="M2113 685 c-18 -8 -33 -19 -33 -25 0 -31 138 -51 210 -31 l24 7 -21
21 c-40 40 -123 53 -180 28z m47 -26 c0 -18 -4 -20 -27 -14 -36 9 -41 14 -23
25 26 17 50 11 50 -11z m120 -9 c0 -6 -9 -10 -20 -10 -13 0 -20 7 -20 20 0 18
3 19 20 10 11 -6 20 -15 20 -20z"/>
<path d="M2028 658 c-10 -12 -18 -31 -18 -42 0 -11 -16 -43 -37 -73 -20 -29
-34 -55 -31 -58 3 -3 23 21 44 54 21 33 46 61 56 64 11 3 16 16 16 41 0 42 -6
44 -30 14z"/>
<path d="M2430 630 c0 -14 49 -32 62 -24 7 5 4 12 -7 21 -22 15 -55 17 -55 3z"/>
<path d="M1299 570 c-3 -41 -8 -56 -20 -58 -14 -3 -16 4 -11 44 l5 48 -23 -21
c-12 -12 -19 -27 -15 -33 4 -6 -1 -20 -10 -30 -14 -15 -15 -25 -7 -49 12 -33
7 -41 -20 -41 -37 0 15 -35 57 -38 21 -1 36 0 32 4 -3 4 -2 15 4 25 8 15 6 21
-8 26 -38 14 -45 53 -9 53 18 0 25 -7 32 -32 8 -33 8 -33 11 13 2 25 0 68 -5
95 l-9 49 -4 -55z"/>
<path d="M754 582 c-28 -42 -26 -70 2 -42 7 7 18 7 35 0 24 -10 24 -10 -4 -7
-17 3 -26 0 -24 -7 6 -17 30 -18 51 -3 25 18 15 60 -18 75 -22 10 -27 8 -42
-16z"/>
<path d="M1808 555 c6 -32 36 -30 40 3 4 23 -13 31 -21 10 -4 -10 -6 -10 -6 0
-1 6 -5 12 -10 12 -4 0 -6 -11 -3 -25z"/>
<path d="M1103 538 c-10 -18 -23 -46 -29 -63 -10 -27 -15 -30 -63 -33 -42 -3
-52 -6 -47 -18 3 -9 6 -18 6 -20 0 -2 6 -4 14 -4 8 0 16 -4 18 -9 2 -4 13 -12
26 -15 28 -9 30 9 2 24 -31 17 -24 30 9 17 17 -6 27 -15 24 -21 -4 -5 1 -7 10
-3 10 4 20 0 25 -10 12 -20 54 -9 45 12 -3 9 2 18 13 22 15 6 14 9 -11 29 -19
15 -26 28 -22 39 4 9 12 13 18 10 6 -4 8 -13 6 -19 -5 -14 27 -39 37 -29 3 4
6 19 6 35 0 23 -4 28 -23 28 -18 0 -23 5 -22 27 0 38 -21 39 -42 1z"/>
<path d="M616 509 c23 -46 64 -85 73 -70 6 8 15 6 33 -9 22 -17 28 -18 38 -6
23 29 -88 116 -147 116 -11 0 -10 -6 3 -31z m24 6 c0 5 5 4 11 -2 6 -6 17 -9
24 -7 6 3 18 -2 25 -11 9 -11 9 -15 1 -15 -7 0 -9 -5 -6 -10 4 -6 10 -8 14 -5
11 6 48 -22 39 -30 -4 -4 -22 3 -40 16 -18 13 -34 22 -36 19 -5 -8 -52 41 -52
54 0 6 5 4 10 -4 5 -8 10 -11 10 -5z"/>
<path d="M848 498 c-18 -19 -34 -28 -43 -24 -9 3 -14 2 -10 -3 3 -5 -1 -12 -7
-14 -10 -4 -9 -6 1 -6 11 -1 11 -4 1 -16 -14 -17 0 -21 17 -4 12 12 66 1 58
-11 -3 -5 -1 -11 4 -15 6 -3 15 4 21 15 6 11 17 20 24 20 7 0 20 8 30 19 16
17 15 19 -16 32 -18 7 -37 19 -43 25 -8 10 -17 5 -37 -18z m68 -18 c28 -11 28
-20 -3 -24 -19 -4 -43 11 -43 25 0 12 13 11 46 -1z"/>
<path d="M1470 499 c0 -28 25 -51 51 -47 17 2 24 9 23 25 0 12 3 20 8 17 4 -3
8 1 8 9 0 10 -13 14 -45 13 -34 -1 -45 -5 -45 -17z"/>
<path d="M1430 412 c0 -11 20 -38 20 -28 0 5 8 2 18 -6 22 -18 44 -17 50 2 3
8 1 12 -3 7 -5 -4 -17 1 -27 10 -20 18 -58 28 -58 15z"/>
<path d="M1966 692 c-19 -36 -20 -42 -6 -42 6 0 10 7 10 15 0 7 8 18 18 24 13
7 14 13 5 22 -9 9 -15 4 -27 -19z"/>
<path d="M2611 679 c-16 -45 -13 -59 5 -26 15 28 16 28 35 11 27 -25 33 -12 8
19 -27 35 -35 34 -48 -4z"/>
<path d="M76 658 c-19 -24 -32 -45 -29 -48 3 -3 19 12 35 32 l30 36 23 -26
c13 -15 26 -24 30 -20 7 7 -34 66 -47 67 -3 1 -22 -18 -42 -41z"/>
<path d="M850 697 c0 -15 30 -67 40 -67 12 0 52 52 44 59 -3 3 -14 -5 -25 -19
-12 -14 -22 -20 -25 -14 -8 18 -33 50 -34 41z"/>
<path d="M1051 659 c-21 -28 -24 -29 -40 -15 -10 9 -22 16 -27 16 -13 0 -69
-58 -63 -65 3 -3 18 8 34 25 l28 29 18 -22 18 -22 35 34 c20 19 36 39 36 43 0
17 -17 7 -39 -23z"/>
<path d="M1432 660 c-18 -29 -15 -36 7 -16 16 15 19 15 24 1 4 -8 11 -15 17
-15 6 0 3 11 -6 25 -20 30 -26 31 -42 5z"/>
<path d="M303 615 l-52 -46 -15 28 c-9 16 -15 21 -16 13 0 -9 7 -26 16 -38
l16 -23 52 45 53 45 13 -24 c7 -14 17 -25 22 -25 13 0 9 13 -15 42 l-23 28
-51 -45z"/>
<path d="M77 563 c-46 -55 -41 -72 6 -18 l33 38 28 -28 c15 -15 30 -25 33 -21
5 5 -47 74 -57 75 -3 0 -22 -21 -43 -46z"/>
<path d="M2746 603 c-2 -2 10 -62 23 -123 2 -7 111 112 111 121 0 6 -128 7
-134 2z"/>
<path d="M289 542 l-43 -39 -18 21 c-23 28 -23 8 0 -22 l18 -24 44 41 c34 31
47 38 57 29 21 -17 25 -3 5 16 -18 15 -21 14 -63 -22z"/>
<path d="M2908 548 c-43 -18 -63 -38 -39 -38 4 0 25 -11 46 -25 20 -15 38 -25
40 -23 6 7 12 108 6 108 -3 -1 -27 -10 -53 -22z"/>
<path d="M95 476 c-22 -19 -37 -38 -32 -42 4 -4 20 5 35 19 35 33 37 33 67 0
13 -16 26 -25 29 -22 3 3 -9 22 -26 42 l-33 37 -40 -34z"/>
<path d="M2624 495 c-9 -23 9 -37 42 -33 21 2 29 8 29 23 0 26 -62 35 -71 10z"/>
<path d="M2213 444 c-8 -20 8 -36 26 -25 15 10 8 41 -9 41 -6 0 -13 -7 -17
-16z"/>
<path d="M92 420 c-7 -11 -8 -20 -3 -20 6 0 13 5 16 10 4 6 16 8 28 5 21 -6
22 -6 3 9 -25 20 -29 20 -44 -4z"/>
<path d="M2786 394 l-70 -47 79 -28 c44 -15 80 -27 81 -26 5 6 -10 147 -15
147 -3 0 -37 -21 -75 -46z"/>
<path d="M2102 391 c-30 -19 7 -71 42 -58 21 8 21 53 0 61 -20 8 -26 7 -42 -3z"/>
<path d="M196 381 c-10 -16 5 -41 24 -41 25 0 35 18 20 35 -14 17 -36 20 -44
6z"/>
<path d="M2240 370 c-24 -24 -25 -29 -4 -58 10 -15 24 -22 37 -20 32 4 37 72
8 88 -17 8 -24 7 -41 -10z"/>
<path d="M397 366 c-3 -8 0 -22 7 -32 13 -17 14 -17 24 3 8 14 8 23 0 31 -16
16 -25 15 -31 -2z"/>
<path d="M2510 329 c-9 -16 -8 -26 5 -45 20 -31 47 -28 59 8 17 49 -40 82 -64
37z"/>
<path d="M664 309 c-3 -6 1 -18 9 -27 13 -12 19 -13 31 -3 8 7 12 19 9 27 -6
17 -39 19 -49 3z"/>
<path d="M1107 304 c-16 -16 -7 -44 14 -44 15 0 20 5 17 22 -3 22 -19 33 -31
22z"/>
<path d="M1542 291 c-20 -12 -10 -46 13 -46 14 0 20 7 20 24 0 27 -13 35 -33
22z"/>
<path d="M2150 280 c0 -13 7 -20 20 -20 13 0 20 7 20 20 0 13 -7 20 -20 20
-13 0 -20 -7 -20 -20z"/>
<path d="M884 279 c-3 -6 0 -17 8 -25 13 -13 16 -13 27 0 7 8 10 20 6 26 -8
13 -32 13 -41 -1z"/>
<path d="M1410 274 c-11 -12 -10 -18 3 -32 16 -15 18 -15 34 0 13 14 14 20 3
32 -7 9 -16 16 -20 16 -4 0 -13 -7 -20 -16z"/>
<path d="M2721 214 c-6 -42 -9 -79 -7 -82 6 -5 125 80 126 89 0 3 -10 11 -22
17 -13 6 -37 20 -54 32 l-32 20 -11 -76z"/>
<path d="M993 254 c-3 -8 1 -22 9 -30 13 -13 16 -13 27 0 7 9 11 23 7 31 -7
20 -35 19 -43 -1z"/>
<path d="M1792 248 c-16 -16 -15 -33 2 -47 17 -15 50 14 42 36 -3 8 -6 17 -6
19 0 9 -27 3 -38 -8z"/>
<path d="M1920 225 c-26 -31 13 -82 44 -56 21 17 21 57 0 65 -23 9 -30 8 -44
-9z"/>
<path d="M1255 214 c-31 -31 6 -82 39 -55 21 17 21 57 0 65 -21 8 -20 8 -39
-10z"/>
<path d="M2880 222 c0 -4 -20 -23 -45 -42 -24 -19 -44 -38 -45 -41 0 -5 122
-31 126 -26 2 2 0 28 -3 60 -4 38 -10 57 -19 57 -8 0 -14 -3 -14 -8z"/>
<path d="M2192 208 c-18 -18 -15 -35 10 -52 15 -11 26 -12 40 -5 32 17 16 69
-22 69 -9 0 -21 -5 -28 -12z"/>
<path d="M1122 188 c2 -12 10 -23 18 -23 22 0 19 39 -3 43 -15 3 -18 -1 -15
-20z"/>
<path d="M2562 188 c-18 -18 -14 -46 7 -58 26 -14 29 -13 41 10 20 38 -19 77
-48 48z"/>
<path d="M900 126 c0 -32 18 -43 38 -23 13 13 13 19 2 31 -19 24 -40 19 -40
-8z"/>
<path d="M1020 111 c0 -24 18 -37 32 -23 8 8 7 16 -2 27 -17 21 -30 19 -30 -4z"/>
<path d="M1105 60 c-4 -7 -3 -16 3 -22 14 -14 45 -2 40 15 -6 16 -34 21 -43 7z"/>
</g>
</svg>
